<svg width="16" height="16" viewBox="0 0 16 16" fill="none" xmlns="http://www.w3.org/2000/svg">
  <path d="M4.51636 11.3809V7.49208C4.51636 7.04828 4.64883 6.61445 4.89694 6.24569L5.64345 5.13613C6.06122 4.5152 6.76256 4.14255 7.51334 4.14255H8.61109C9.24353 4.14255 9.8468 4.40743 10.2732 4.87237L11.4631 6.16978C11.8416 6.5825 12.0514 7.12114 12.0514 7.67996V12.6226V12.76C12.0514 13.9971 11.0439 15 9.80095 15H3.25047C2.00757 15 1 13.9971 1 12.76V3.24C1 2.00288 2.00757 1 3.25047 1H12.6274C13.8452 1 14.8421 1.96417 14.877 3.1758L14.9991 7.41276C15.0354 8.67452 14.0177 9.71699 12.7495 9.71699H4.51636" stroke="currentColor" stroke-width="1.6" stroke-linecap="round"/>
</svg>  
